<svg width="44" height="34" viewBox="0 0 44 34" fill="none" xmlns="http://www.w3.org/2000/svg">
<path d="M40.2325 0H3.6575C2.68747 0 1.75717 0.421427 1.07126 1.17157C0.385343 1.92172 0 2.93913 0 4L0 30C0 31.0609 0.385343 32.0783 1.07126 32.8284C1.75717 33.5786 2.68747 34 3.6575 34H40.2325C41.2025 34 42.1328 33.5786 42.8187 32.8284C43.5047 32.0783 43.89 31.0609 43.89 30V4C43.89 2.93913 43.5047 1.92172 42.8187 1.17157C42.1328 0.421427 41.2025 0 40.2325 0ZM42.0612 30C42.0612 30.5304 41.8686 31.0391 41.5256 31.4142C41.1827 31.7893 40.7175 32 40.2325 32H3.6575C3.17249 32 2.70734 31.7893 2.36438 31.4142C2.02142 31.0391 1.82875 30.5304 1.82875 30V4C1.82875 3.46957 2.02142 2.96086 2.36438 2.58579C2.70734 2.21071 3.17249 2 3.6575 2H40.2325C40.7175 2 41.1827 2.21071 41.5256 2.58579C41.8686 2.96086 42.0612 3.46957 42.0612 4V30Z" fill="white"/>
<path d="M38.7787 5.08794C38.6179 5.00899 38.4396 4.98256 38.2654 5.01184C38.0911 5.04111 37.9284 5.12484 37.7966 5.25294L21.945 20.6619L6.09433 5.25194C5.96257 5.12362 5.79967 5.03974 5.6253 5.01041C5.45092 4.98107 5.2725 5.00753 5.11157 5.0866C4.95063 5.16567 4.81405 5.29397 4.71829 5.45603C4.62254 5.61809 4.5717 5.80699 4.5719 5.99994V29.9999C4.5719 30.2652 4.66824 30.5195 4.83971 30.707C5.01119 30.8946 5.24377 30.9999 5.48628 30.9999C5.72878 30.9999 5.96136 30.8946 6.13284 30.707C6.30431 30.5195 6.40065 30.2652 6.40065 29.9999V8.22694L21.337 22.7469C21.5044 22.9097 21.7206 22.9996 21.9446 22.9996C22.1686 22.9996 22.3848 22.9097 22.5522 22.7469L37.4894 8.22694V28.9999C37.4894 29.2652 37.5857 29.5195 37.7572 29.707C37.9287 29.8946 38.1613 29.9999 38.4038 29.9999C38.6463 29.9999 38.8789 29.8946 39.0503 29.707C39.2218 29.5195 39.3181 29.2652 39.3181 28.9999V5.99994C39.3181 5.80724 39.2672 5.61864 39.1715 5.45685C39.0758 5.29505 38.9394 5.16694 38.7787 5.08794Z" fill="white"/>
<path d="M21.3543 16.763C21.5194 16.9158 21.7287 16.9997 21.945 16.9997C22.1613 16.9997 22.3706 16.9158 22.5357 16.763L34.4226 5.76302C34.6014 5.5897 34.711 5.34674 34.7281 5.08612C34.7452 4.8255 34.6683 4.56793 34.5139 4.36851C34.3595 4.1691 34.1399 4.04369 33.9021 4.01911C33.6642 3.99454 33.427 4.07275 33.2412 4.23702L21.945 14.69L10.6488 4.23702C10.5577 4.14864 10.4513 4.08108 10.3359 4.0383C10.2205 3.99552 10.0985 3.97839 9.97698 3.98791C9.85547 3.99742 9.73692 4.0334 9.6283 4.09373C9.51968 4.15405 9.42318 4.2375 9.34446 4.33918C9.26574 4.44087 9.20639 4.55873 9.16991 4.68584C9.13342 4.81296 9.12052 4.94677 9.13198 5.07941C9.14344 5.21205 9.17902 5.34085 9.23663 5.45824C9.29424 5.57564 9.37272 5.67925 9.46746 5.76302L21.3543 16.763Z" fill="white"/>
</svg>
