<svg xmlns="http://www.w3.org/2000/svg" width="2537" height="1284" viewBox="0 0 2537 1284" version="1.1"><path d="M 336.500 283.140 C 280.255 288.003, 223.910 310.508, 178.826 346.117 C 166.105 356.164, 142.943 379.264, 132.821 392 C 95.654 438.760, 73.112 492.782, 65.845 552.500 C 63.919 568.333, 64.203 607.193, 66.361 623 C 73.300 673.840, 88.549 714.097, 117.496 758 C 123.117 766.525, 130.289 778.337, 133.435 784.250 C 136.581 790.163, 139.507 795, 139.937 795 C 141.607 795, 180.281 783.631, 194.750 778.886 L 210 773.885 210 705.566 L 210 637.246 180.549 596.762 L 151.099 556.277 145.299 558.245 C 129.538 563.595, 111.978 555.853, 104.286 540.164 C 101.954 535.407, 101.508 533.216, 101.505 526.479 C 101.501 519.427, 101.897 517.651, 104.787 511.782 C 110.773 499.622, 121.376 493, 134.859 493 C 146.642 493, 156.636 498.206, 162.844 507.578 C 166.845 513.618, 168.371 518.859, 168.354 526.500 C 168.339 533.694, 166.743 538.987, 162.811 544.883 C 161.203 547.294, 160.083 549.769, 160.320 550.383 C 160.558 550.997, 174.308 570.153, 190.876 592.952 L 221 634.404 221 702.192 L 221 769.979 228.750 767.129 C 233.013 765.562, 241.900 762.171, 248.500 759.593 L 260.500 754.907 260 588.853 L 259.500 422.798 255.005 421.279 C 246.022 418.242, 238.387 411.150, 234.253 402 C 233.216 399.706, 232.642 395.400, 232.586 389.500 C 232.509 381.419, 232.802 379.903, 235.459 374.655 C 239.171 367.321, 246.384 360.753, 253.798 357.957 C 261.708 354.973, 273.326 355.534, 280.500 359.245 C 286.475 362.336, 292.909 368.815, 296.145 375 C 298.161 378.853, 298.500 380.939, 298.500 389.500 C 298.500 398.713, 298.267 399.921, 295.538 404.848 C 290.657 413.660, 282.986 419.501, 272.250 422.579 C 271.257 422.864, 271 456.501, 271 586.469 C 271 676.411, 271.337 749.974, 271.750 749.943 C 272.163 749.912, 280.825 745.967, 291 741.176 L 309.500 732.465 309.797 627.482 L 310.093 522.500 321.703 513.500 C 328.088 508.550, 339.976 499.221, 348.119 492.769 L 362.925 481.037 360.510 475.825 C 352.077 457.621, 361.676 435.887, 380.752 429.995 C 388.475 427.609, 391.737 427.520, 399.289 429.487 C 409.653 432.187, 417.019 438.446, 421.663 448.500 C 423.933 453.415, 424.428 455.860, 424.396 462.020 C 424.328 475.323, 417.442 486.196, 405.297 492.175 C 399.680 494.940, 397.762 495.368, 391 495.368 C 384.228 495.368, 382.323 494.941, 376.660 492.153 L 370.129 488.938 345.591 508.219 L 321.053 527.500 321.027 626.770 L 321 726.041 325.250 723.915 C 327.587 722.746, 339.063 715.477, 350.750 707.763 L 372 693.735 372 657.336 C 372 629.089, 371.720 620.851, 370.750 620.552 C 362.199 617.919, 358.946 616.041, 353.411 610.546 C 346.050 603.236, 343.528 597.075, 343.570 586.500 C 343.671 561.434, 370.958 545.673, 393.304 557.775 C 408.364 565.931, 414.706 585.076, 407.553 600.791 C 403.803 609.031, 396.213 616.096, 388.267 618.744 L 382.500 620.666 382.237 655.200 L 381.974 689.734 364.237 702.277 C 308.095 741.978, 254.089 774.654, 201.971 800.455 C 97.056 852.393, 24.476 862.057, 12.399 825.696 C 8.966 815.361, 11.085 798.747, 17.959 782.092 C 19.641 778.017, 20.867 774.533, 20.683 774.349 C 20.049 773.716, 11.766 789.019, 7.945 797.882 C 2.244 811.106, 0.618 818.063, 0.555 829.500 C 0.506 838.465, 0.787 840.084, 3.270 845.142 C 10.278 859.410, 25.107 866.552, 50 867.646 C 90.550 869.429, 154.253 851.942, 232.500 817.550 C 251.360 809.260, 304.565 782.792, 325.639 771.215 C 523.533 662.505, 700.249 509.417, 731.190 419.889 C 734.135 411.367, 734.438 409.392, 734.467 398.500 C 734.498 387.403, 734.300 386.121, 731.839 381.460 C 723.814 366.256, 707.876 359.643, 679.500 359.742 C 666.796 359.787, 643.601 362.066, 642.266 363.401 C 642.044 363.623, 643.423 365.986, 645.330 368.652 C 654.721 381.784, 653.971 398.133, 642.926 421 C 633.997 439.486, 619.008 459.983, 596.804 484.070 C 585.200 496.657, 560.915 520.134, 558.690 520.916 C 558.039 521.144, 560.602 517.994, 564.386 513.916 C 583.337 493.489, 600.876 465.494, 611.884 438.098 L 616.867 425.696 613.303 420.098 C 577.874 364.452, 521.891 319.881, 461.062 298.894 C 451.883 295.726, 449.395 295.199, 448.465 296.224 C 447.827 296.926, 438.124 309.161, 426.903 323.413 C 415.681 337.664, 405.150 350.150, 403.500 351.159 C 399.904 353.357, 392.975 353.556, 389.137 351.571 C 386.187 350.045, 372.659 334.771, 369.128 328.979 C 366.006 323.857, 366.449 319.538, 372 301 C 374.750 291.816, 377 283.784, 377 283.151 C 377 281.784, 352.258 281.777, 336.500 283.140 M 258.196 367.858 C 248.474 371.288, 243 379.084, 243 389.500 C 243 402.665, 252.418 412.143, 265.500 412.143 C 278.670 412.143, 288.406 402.522, 288.413 389.500 C 288.422 373.559, 273.113 362.595, 258.196 367.858 M 382.500 440.490 C 377.554 442.224, 370.425 449.807, 369.035 454.815 C 365.792 466.490, 370.770 477.656, 381.429 482.619 C 387.962 485.661, 394.054 485.662, 400.500 482.623 C 406.458 479.813, 409.174 477.048, 411.916 471 C 415.905 462.202, 414.081 453.036, 406.908 445.833 C 400.267 439.163, 391.660 437.279, 382.500 440.490 M 127.748 504.367 C 121.696 506.623, 116.962 510.885, 114.402 516.383 C 107.113 532.038, 117.811 548.956, 135 548.956 C 153.029 548.956, 163.747 529.467, 154.210 514.026 C 148.870 505.380, 136.825 500.983, 127.748 504.367 M 369.759 565.363 C 364.496 567.326, 361.512 569.449, 358.705 573.229 C 352.027 582.223, 352.482 594.092, 359.817 602.227 C 364.566 607.494, 370.038 609.956, 377 609.956 C 389.929 609.956, 400.053 599.571, 399.978 586.384 C 399.953 581.961, 396.923 574.623, 393.688 571.153 C 388.300 565.372, 377.041 562.648, 369.759 565.363 M 205.999 1046.250 C 199.730 1050.530, 198.881 1053.584, 199.209 1070.681 C 199.542 1088.060, 200.188 1089.748, 208.046 1093.762 L 212.474 1096.025 364.987 1095.762 C 516.012 1095.503, 517.534 1095.480, 521 1093.477 C 523.073 1092.279, 525.418 1089.644, 526.750 1087.015 C 528.746 1083.078, 528.998 1081.103, 528.978 1069.538 C 528.952 1054.367, 527.515 1049.718, 521.750 1046.155 L 518.264 1044 363.780 1044 L 209.296 1044 205.999 1046.250 M 206.984 1119.854 C 205.068 1120.874, 202.478 1123.461, 201.229 1125.604 C 199.098 1129.258, 198.974 1130.442, 199.229 1144.681 C 199.524 1161.220, 199.975 1162.652, 206.385 1167.438 C 209.146 1169.500, 209.159 1169.500, 364 1169.500 C 518.841 1169.500, 518.854 1169.500, 521.615 1167.438 C 528.144 1162.563, 528.500 1161.353, 528.500 1144.003 C 528.500 1126.389, 528.082 1125.063, 521.010 1120.250 L 517.704 1118 364.087 1118 C 216.418 1118, 210.334 1118.072, 206.984 1119.854 M 231.001 1192.750 C 231.002 1194.477, 235.459 1205.055, 239.308 1212.464 C 254.060 1240.860, 281.917 1264.447, 314.119 1275.810 C 331.595 1281.977, 341.378 1283.500, 363.500 1283.500 C 385.760 1283.500, 392.702 1282.469, 410.651 1276.498 C 443.567 1265.549, 471.181 1243.024, 487.299 1213.976 C 490.736 1207.783, 496 1195.078, 496 1192.977 C 496 1192.346, 449.103 1192, 363.500 1192 C 290.625 1192, 231 1192.338, 231.001 1192.750" stroke="none" fill="#1b04b4" fill-rule="evenodd"/><path d="M 390.500 0.959 C 387.695 2.127, 383.327 6.972, 382.064 10.315 C 380.392 14.741, 380.812 22.504, 383.091 29.282 C 390.255 50.586, 417.290 91.536, 449.915 130.500 C 492.270 181.084, 535.058 226.972, 572.624 262.098 L 583.748 272.500 574.427 303.500 C 569.301 320.550, 565.143 335.175, 565.187 336 C 565.231 336.825, 569.473 341.515, 574.614 346.423 C 583.385 354.795, 584.070 355.244, 585.731 353.710 C 586.704 352.811, 595.600 341.738, 605.500 329.102 C 615.400 316.466, 623.905 306.099, 624.400 306.064 C 624.895 306.029, 628.846 308.275, 633.181 311.055 C 637.515 313.836, 642.808 316.727, 644.944 317.480 C 648.481 318.728, 648.977 318.683, 650.525 316.973 C 652.127 315.202, 652.098 314.681, 650.015 307.823 C 648.800 303.823, 646.689 298.347, 645.324 295.654 C 643.960 292.960, 643.216 290.407, 643.672 289.980 C 644.127 289.553, 663.962 278.709, 687.750 265.882 C 711.538 253.054, 730.987 242.096, 730.970 241.530 C 730.954 240.963, 729.240 238.533, 727.161 236.128 L 723.381 231.756 669.967 237.957 C 639.747 241.465, 616.419 243.757, 616.245 243.234 C 614.758 238.775, 582 190.535, 566.174 169.500 C 561.209 162.900, 557.450 157.220, 557.823 156.878 C 558.195 156.536, 593.375 137.451, 636 114.466 C 678.625 91.482, 714.048 72.184, 714.719 71.583 C 716.379 70.096, 702.412 53.112, 699.500 53.077 C 698.400 53.064, 651.375 58.399, 595 64.932 C 538.625 71.466, 492.024 76.516, 491.443 76.156 C 490.861 75.795, 486.314 71, 481.339 65.500 C 454.775 36.135, 425.160 10.312, 409.500 2.858 C 403.338 -0.075, 394.989 -0.910, 390.500 0.959 M 303.087 146.439 C 315.662 164.972, 317.280 186.570, 307.594 206.602 C 305.759 210.396, 302.850 215.249, 301.129 217.388 C 299.408 219.526, 298 221.468, 298 221.704 C 298 221.941, 299.928 220.554, 302.285 218.623 C 320.342 203.827, 348.745 201.865, 369.336 213.993 C 372.176 215.666, 376.041 218.264, 377.924 219.767 L 381.349 222.500 377.603 217.580 C 368.900 206.149, 365 194.674, 365 180.500 C 365 166.606, 368.813 154.771, 376.558 144.628 C 378.501 142.083, 379.850 140, 379.554 140 C 379.259 140, 377.010 141.532, 374.557 143.404 C 363.726 151.672, 350.631 155.501, 336 154.679 C 322.876 153.941, 313.649 150.608, 303.246 142.848 L 297.993 138.930 303.087 146.439 M 433.471 145.250 C 432.812 147.018, 382.110 316.715, 381.423 319.449 C 380.982 321.206, 382.417 323.542, 387.965 330.100 C 391.874 334.720, 395.506 338.500, 396.037 338.500 C 396.878 338.500, 417.363 312.876, 480.152 233.282 L 496.101 213.064 480.714 197.782 C 465.826 182.995, 451.222 166.238, 440.155 151.242 C 437.216 147.259, 434.614 144, 434.374 144 C 434.134 144, 433.728 144.563, 433.471 145.250 M 2259 344.675 C 2190.383 348.487, 2126.468 370.862, 2076.500 408.564 C 2040.594 435.656, 2013.631 468.299, 1993.953 508.500 C 1980.169 536.660, 1971.893 563.386, 1966.858 596 C 1963.790 615.877, 1963.505 663.441, 1966.333 683.500 C 1975.505 748.532, 2001.010 802.221, 2043.478 845.890 C 2080.807 884.274, 2125.161 910.483, 2178.869 925.893 C 2242.561 944.167, 2317.278 944.539, 2382.500 926.906 C 2440.049 911.347, 2492.282 878.810, 2527.633 836.500 C 2532.228 831, 2535.961 826.050, 2535.928 825.500 C 2535.895 824.950, 2511.353 802.675, 2481.389 776 C 2451.425 749.325, 2424.276 725.143, 2421.057 722.261 L 2415.205 717.023 2406.353 727.112 C 2384.393 752.139, 2356.729 770.919, 2330.811 778.394 C 2293.854 789.052, 2249.691 784.023, 2219.616 765.731 C 2189.181 747.219, 2169.554 717.859, 2160.801 677.749 C 2158.825 668.696, 2158.561 664.584, 2158.532 642.500 C 2158.496 614.270, 2159.458 606.825, 2165.601 587.823 C 2184.115 530.555, 2233.127 497.631, 2295.901 500.292 C 2303.380 500.609, 2313.242 501.596, 2317.816 502.485 C 2350.061 508.755, 2379.792 527, 2406.091 556.656 L 2415.215 566.944 2425.558 557.722 C 2431.246 552.650, 2458.395 528.475, 2485.888 504 C 2513.382 479.525, 2535.904 459.100, 2535.938 458.611 C 2536.195 454.925, 2504.198 421.815, 2489 410.040 C 2438.501 370.912, 2380.417 350.049, 2308 345.026 C 2294.628 344.098, 2272.272 343.938, 2259 344.675 M 834 642 L 834 927 1071 927 L 1308 927 1308 854 L 1308 781 1166 781 L 1024 781 1024 744 L 1024 707 1144.500 707 L 1265 707 1265 637.500 L 1265 568 1144.500 568 L 1024 568 1024 535.500 L 1024 503 1161 503 L 1298 503 1298 430 L 1298 357 1066 357 L 834 357 834 642 M 1381 642 L 1381 927 1477.500 927 L 1574 927 1574 857 L 1574 787 1621.750 786.991 C 1669.956 786.982, 1687.603 786.265, 1709.500 783.426 C 1759.696 776.918, 1803.873 760.150, 1838.803 734.347 C 1849.677 726.314, 1872.261 703.242, 1880.255 692 C 1888.991 679.714, 1900.634 656.545, 1905.343 642.074 C 1913.330 617.534, 1916.568 593.493, 1915.711 565.096 C 1914.058 510.298, 1896.397 466.314, 1861.523 430.141 C 1825.773 393.060, 1772.981 368.970, 1709 360.543 C 1684.783 357.354, 1667.367 357.020, 1524.750 357.010 L 1381 357 1381 642 M 1574 572 L 1574 638 1614.250 637.993 C 1643.211 637.988, 1657.061 637.601, 1663.631 636.615 C 1692.158 632.330, 1709.879 619.275, 1717.718 596.766 C 1721.081 587.109, 1722.016 566.407, 1719.602 555.035 C 1715.113 533.885, 1701.926 519.018, 1681.032 511.554 C 1667.689 506.787, 1658.365 506.012, 1614.250 506.006 L 1574 506 1574 572 M 631 563.953 C 506.050 689.200, 357.937 793.385, 198.005 868.528 C 186.732 873.824, 177.348 878.318, 177.151 878.515 C 176.955 878.712, 180.170 888.239, 184.298 899.687 C 191.764 920.394, 200 946.026, 200 948.556 C 200 949.285, 200.422 950.143, 200.938 950.462 C 202.747 951.579, 252.791 921.199, 289.500 896.698 C 367.800 844.439, 434.622 789.479, 503.054 721.052 C 543.655 680.455, 573.198 647.614, 606.553 606 C 626.587 581.004, 657.770 539.292, 656.888 538.667 C 656.674 538.516, 645.025 549.895, 631 563.953 M 650.651 565.750 C 543.826 727.763, 397.068 871.886, 231.998 976.887 C 216.372 986.827, 211.072 990.690, 211.416 991.887 C 211.671 992.774, 213.117 999.237, 214.629 1006.250 L 217.377 1019 290.100 1019 L 362.822 1019 374.286 1006.750 C 470.521 903.913, 557.211 776.585, 618.535 648 C 635.900 611.589, 661.173 553, 659.514 553 C 659.263 553, 655.275 558.737, 650.651 565.750 M 660.366 580 C 659.742 581.375, 656.637 589.250, 653.466 597.500 C 628.589 662.219, 592.010 738.146, 555.188 801.500 C 513.723 872.840, 465.573 941.361, 411.161 1006.460 C 406.122 1012.489, 402 1017.776, 402 1018.210 C 402 1018.645, 426.075 1019, 455.500 1019 C 484.925 1019, 509 1018.741, 509 1018.424 C 509 1018.107, 511.074 1008.546, 513.608 997.176 C 521.805 960.407, 533.861 920.134, 547.514 883.918 C 564.993 837.554, 591.308 783.248, 608.486 758.089 C 639.027 713.360, 656.486 663.953, 660.994 609.500 C 662.425 592.209, 662.085 576.211, 660.366 580 M 834 1053 L 834 1067 1685.500 1067 L 2537 1067 2537 1053 L 2537 1039 1685.500 1039 L 834 1039 834 1053 M 1106.239 1214.750 L 1106.500 1258.500 1111 1258.500 L 1115.500 1258.500 1115.761 1214.750 L 1116.021 1171 1111 1171 L 1105.979 1171 1106.239 1214.750 M 1319.655 1172.829 C 1316.192 1176.655, 1318.938 1183, 1324.057 1183 C 1327.442 1183, 1331 1179.925, 1331 1177 C 1331 1171.966, 1323.074 1169.051, 1319.655 1172.829 M 1351.239 1214.750 L 1351.500 1258.500 1355.750 1258.807 L 1360 1259.115 1360 1215.057 L 1360 1171 1355.489 1171 L 1350.979 1171 1351.239 1214.750 M 1654 1188.604 L 1654 1206.207 1650.301 1202.959 C 1643.929 1197.365, 1638.847 1195.705, 1629.579 1196.191 C 1620.432 1196.671, 1612.931 1199.930, 1608.257 1205.454 C 1599.025 1216.366, 1597.949 1234.179, 1605.816 1245.891 C 1611.856 1254.885, 1622.577 1259.709, 1634.411 1258.759 C 1641.599 1258.182, 1646.027 1256.191, 1651.250 1251.187 L 1655 1247.594 1655 1253.355 L 1655 1259.115 1659.250 1258.807 L 1663.500 1258.500 1663.761 1214.750 L 1664.021 1171 1659.011 1171 L 1654 1171 1654 1188.604 M 2418.750 1174.080 C 2416.789 1175.222, 2414.613 1179.112, 2413.621 1183.250 C 2413.022 1185.750, 2413.214 1185.998, 2415.731 1185.978 C 2417.865 1185.962, 2418.844 1185.216, 2420 1182.728 C 2422.142 1178.118, 2425.033 1178.090, 2431.608 1182.619 C 2440.073 1188.449, 2446.241 1187.307, 2449.638 1179.282 C 2451.750 1174.291, 2451.414 1173, 2448 1173 C 2445.704 1173, 2445 1173.452, 2445 1174.929 C 2445 1177.499, 2442.374 1180, 2439.675 1180 C 2438.475 1180, 2435.278 1178.425, 2432.571 1176.500 C 2427.462 1172.868, 2422.364 1171.975, 2418.750 1174.080 M 1814.500 1176.411 C 1797.582 1180.610, 1785.549 1193.866, 1782.840 1211.288 C 1779.977 1229.703, 1789.836 1247.418, 1807.570 1255.723 C 1813.020 1258.275, 1814.471 1258.500, 1825.500 1258.500 C 1836.962 1258.500, 1837.791 1258.357, 1844 1255.314 C 1847.575 1253.562, 1851.805 1250.938, 1853.400 1249.483 L 1856.300 1246.838 1853.310 1243.849 L 1850.321 1240.859 1847.410 1243.289 C 1834.026 1254.463, 1811.678 1252.530, 1799.928 1239.181 C 1794.074 1232.531, 1791.713 1225.270, 1792.227 1215.500 C 1792.499 1210.317, 1793.385 1205.846, 1794.744 1202.804 C 1797.357 1196.950, 1804.756 1189.438, 1810.341 1186.967 C 1822.825 1181.445, 1839.178 1183.335, 1847.779 1191.294 L 1850.058 1193.403 1853.206 1190.255 L 1856.354 1187.107 1853.927 1185.036 C 1843.872 1176.453, 1828.170 1173.018, 1814.500 1176.411 M 834.239 1217.250 L 834.500 1258.500 863.750 1258.765 L 893 1259.030 893 1254.515 L 893 1250 868.500 1250 L 844 1250 844 1235.500 L 844 1221 865 1221 L 886 1221 886 1216.500 L 886 1212 865 1212 L 844 1212 844 1198.018 L 844 1184.036 867.750 1183.768 L 891.500 1183.500 891.810 1179.750 L 892.121 1176 863.049 1176 L 833.978 1176 834.239 1217.250 M 1240 1217.415 L 1240 1259 1244.500 1259 L 1249 1259 1249 1246 L 1249 1233 1259.428 1233 C 1286.128 1233, 1297.888 1227.935, 1303.018 1214.224 C 1308.253 1200.231, 1302.579 1185.869, 1289.224 1179.311 C 1283.565 1176.532, 1283.253 1176.496, 1261.750 1176.165 L 1240 1175.831 1240 1217.415 M 1458 1189.500 L 1458 1196 1452.500 1196 L 1447 1196 1447 1200 L 1447 1204 1452.500 1204 L 1458 1204 1458 1224.788 C 1458 1244.357, 1458.132 1245.838, 1460.250 1250.038 C 1464.392 1258.251, 1476.030 1261.439, 1485.756 1257.024 L 1490.012 1255.093 1488.380 1251.671 C 1486.816 1248.392, 1486.639 1248.306, 1484.124 1249.618 C 1480.977 1251.261, 1474.646 1251.416, 1471.850 1249.920 C 1467.809 1247.757, 1467 1243.274, 1467 1223.032 L 1467 1204 1476.500 1204 L 1486 1204 1486 1200 L 1486 1196 1476.500 1196 L 1467 1196 1467 1189.500 L 1467 1183 1462.500 1183 L 1458 1183 1458 1189.500 M 2228 1189.500 L 2228 1196 2222.500 1196 L 2217 1196 2217 1200 L 2217 1204 2222.500 1204 L 2228 1204 2228.022 1224.750 C 2228.041 1242.737, 2228.289 1246.033, 2229.881 1249.500 C 2230.891 1251.700, 2232.569 1254.224, 2233.609 1255.108 C 2238.511 1259.278, 2248.826 1260.170, 2255.756 1257.024 L 2260.012 1255.093 2258.347 1251.602 C 2256.722 1248.195, 2256.617 1248.146, 2253.891 1249.556 C 2250.592 1251.262, 2244.691 1251.440, 2241.850 1249.920 C 2237.809 1247.757, 2237 1243.274, 2237 1223.032 L 2237 1204 2246.500 1204 L 2256 1204 2256 1200 L 2256 1196 2246.500 1196 L 2237 1196 2237 1189.500 L 2237 1183 2232.500 1183 L 2228 1183 2228 1189.500 M 1249 1204.015 L 1249 1224.206 1265.250 1223.817 C 1279.588 1223.474, 1281.990 1223.171, 1285.666 1221.237 C 1292.228 1217.785, 1294.442 1213.856, 1294.819 1205 C 1295.109 1198.179, 1294.883 1197.113, 1292.327 1193.222 C 1287.550 1185.951, 1283.319 1184.560, 1264.750 1184.162 L 1249 1183.824 1249 1204.015 M 916.406 1197.741 C 910.821 1200.141, 908.643 1201.893, 906.140 1206 C 901.800 1213.123, 904.357 1222.627, 911.724 1226.756 C 913.938 1227.996, 920.840 1230.138, 927.062 1231.514 C 939.655 1234.299, 942.656 1235.780, 943.638 1239.693 C 945.227 1246.025, 938.508 1250.996, 928.355 1250.998 C 922.220 1251, 909.621 1247.814, 908.483 1245.973 C 907.304 1244.065, 905.026 1245.049, 903.416 1248.163 C 901.833 1251.224, 901.855 1251.382, 904.108 1253.081 C 910.810 1258.136, 928.428 1260.471, 938.275 1257.608 C 950.736 1253.986, 956.337 1243.694, 951.132 1233.984 C 948.629 1229.315, 942.897 1226.541, 929.828 1223.674 C 923.959 1222.386, 918.003 1220.577, 916.594 1219.654 C 911.295 1216.182, 912.445 1208.440, 918.700 1205.472 C 923.704 1203.098, 936.956 1203.733, 942.747 1206.625 L 946.994 1208.746 948.997 1205.505 C 950.099 1203.722, 951 1202.035, 951 1201.755 C 951 1201.475, 948.638 1200.220, 945.750 1198.966 C 938.526 1195.829, 922.420 1195.156, 916.406 1197.741 M 984 1196.935 C 968.510 1201.664, 959.729 1216.159, 962.249 1232.838 C 963.854 1243.462, 970.173 1251.872, 979.949 1256.394 C 986.114 1259.245, 1001.814 1259.420, 1006.810 1256.693 C 1010.537 1254.659, 1018 1248.182, 1018 1246.982 C 1018 1246.550, 1016.558 1245.283, 1014.795 1244.167 L 1011.590 1242.138 1007.926 1245.448 C 1003.226 1249.694, 998.135 1251.342, 991.432 1250.786 C 976.635 1249.559, 967.594 1234.782, 971.985 1219 C 973.346 1214.108, 978.607 1208.083, 983.429 1205.893 C 991.960 1202.018, 1005.436 1204.438, 1009.451 1210.566 C 1011.137 1213.139, 1011.968 1213.039, 1016.396 1209.730 C 1018.241 1208.351, 1018.229 1208.229, 1015.939 1205.132 C 1014.645 1203.381, 1010.908 1200.611, 1007.634 1198.975 C 1002.520 1196.420, 1000.610 1196.012, 994.090 1196.086 C 989.916 1196.133, 985.375 1196.515, 984 1196.935 M 1049 1196.935 C 1040.698 1199.469, 1034.003 1205.089, 1029.858 1213 C 1027.838 1216.855, 1027.500 1218.933, 1027.500 1227.500 C 1027.500 1236.739, 1027.728 1237.912, 1030.500 1242.922 C 1040.338 1260.704, 1066.471 1264.529, 1080.726 1250.274 C 1089.480 1241.520, 1092.421 1227.398, 1087.955 1215.559 C 1083.364 1203.390, 1071.939 1195.910, 1058.212 1196.086 C 1054.521 1196.133, 1050.375 1196.515, 1049 1196.935 M 1149.281 1196.970 C 1144.714 1198.055, 1135 1202.952, 1135 1204.169 C 1135 1204.731, 1135.749 1206.460, 1136.665 1208.011 L 1138.331 1210.830 1143.829 1207.727 C 1148.441 1205.124, 1150.631 1204.563, 1157.414 1204.245 C 1163.969 1203.938, 1166.148 1204.225, 1168.923 1205.760 C 1173.207 1208.131, 1176 1213.214, 1176 1218.641 L 1176 1222.812 1161.750 1223.176 C 1149.902 1223.479, 1146.726 1223.895, 1142.908 1225.644 C 1134.113 1229.673, 1130.732 1239.084, 1134.786 1248.249 C 1137.587 1254.580, 1143.704 1258.103, 1153.062 1258.772 C 1161.810 1259.398, 1167.744 1257.767, 1172.958 1253.304 L 1177 1249.844 1177 1254.422 L 1177 1259 1181 1259 L 1185 1259 1184.978 1235.750 C 1184.959 1215.426, 1184.727 1211.996, 1183.135 1208.491 C 1180.845 1203.450, 1175.193 1198.425, 1170.277 1197.060 C 1165.998 1195.872, 1154.116 1195.821, 1149.281 1196.970 M 1320 1227.500 L 1320 1259 1324.500 1259 L 1329 1259 1329 1227.500 L 1329 1196 1324.500 1196 L 1320 1196 1320 1227.500 M 1397.703 1197.384 C 1395.614 1198.161, 1392.163 1199.950, 1390.034 1201.359 C 1374.696 1211.509, 1372.437 1236.006, 1385.591 1249.541 C 1400.419 1264.797, 1427.494 1260.961, 1436.646 1242.307 C 1442.409 1230.561, 1440.511 1214.999, 1432.193 1205.791 C 1426.476 1199.464, 1420.022 1196.706, 1410 1196.309 C 1404.370 1196.085, 1400.218 1196.448, 1397.703 1197.384 M 1515.063 1198.133 C 1507.645 1201.061, 1500.915 1207.953, 1498.045 1215.559 C 1496.233 1220.363, 1495.885 1222.950, 1496.226 1229.071 C 1497.196 1246.469, 1508.531 1257.804, 1525.929 1258.774 C 1539.015 1259.503, 1549.407 1253.917, 1555.532 1242.859 C 1558.268 1237.920, 1558.500 1236.717, 1558.500 1227.500 C 1558.500 1218.933, 1558.162 1216.855, 1556.142 1213 C 1550.369 1201.982, 1541.969 1196.819, 1529 1196.316 C 1522.123 1196.050, 1519.462 1196.397, 1515.063 1198.133 M 1699.086 1197.668 C 1692.512 1200.063, 1684.742 1208.185, 1682.029 1215.500 C 1677.686 1227.213, 1680.650 1241.496, 1689.199 1250.045 C 1700.212 1261.058, 1722.074 1261.898, 1733.630 1251.752 L 1737.095 1248.709 1734.361 1245.855 C 1731.647 1243.022, 1731.612 1243.016, 1729.564 1244.939 C 1726.027 1248.258, 1718.800 1250.955, 1713.376 1250.978 C 1701.416 1251.029, 1691.835 1243.903, 1689.541 1233.250 L 1688.841 1230 1715.036 1230 L 1741.230 1230 1740.534 1224.250 C 1739.114 1212.537, 1733.365 1203.701, 1724 1198.838 C 1718.217 1195.835, 1705.730 1195.249, 1699.086 1197.668 M 1885.139 1197.147 C 1876.756 1199.560, 1869.039 1206.719, 1865.895 1215 C 1861.187 1227.402, 1864.370 1242.478, 1873.467 1250.862 C 1885.494 1261.949, 1905.865 1261.602, 1917.699 1250.109 C 1923.515 1244.462, 1926.424 1236.952, 1926.465 1227.482 C 1926.496 1220.401, 1926.116 1218.684, 1923.215 1212.788 C 1919.505 1205.248, 1914.679 1200.826, 1906.960 1197.893 C 1901.538 1195.833, 1890.963 1195.471, 1885.139 1197.147 M 1943.236 1227.250 L 1943.500 1258.500 1947.645 1258.802 L 1951.790 1259.105 1952.198 1239.302 C 1952.632 1218.302, 1953.416 1214.379, 1958.198 1209.289 C 1963.400 1203.752, 1976.931 1202.322, 1982.791 1206.690 C 1988.981 1211.304, 1989.470 1213.428, 1989.820 1237.250 L 1990.140 1259 1994.570 1259 L 1999 1259 1999.024 1241.250 C 1999.038 1231.487, 1999.513 1221.484, 2000.081 1219.020 C 2002.176 1209.930, 2009.683 1204.066, 2019.282 1204.022 C 2026.046 1203.991, 2030.393 1206.126, 2033.684 1211.096 L 2036.500 1215.349 2036.835 1237.174 L 2037.169 1259 2041.585 1259 L 2046 1259 2046 1238.182 C 2046 1213.191, 2045.069 1208.689, 2038.612 1202.473 C 2033.762 1197.803, 2028.665 1196, 2020.312 1196 C 2012.245 1196, 2006 1198.326, 2000.644 1203.324 L 1996.169 1207.500 1992.920 1203.621 C 1987.957 1197.696, 1982.407 1195.672, 1972.591 1196.207 C 1963.751 1196.689, 1959.995 1198.158, 1955.106 1203.048 L 1952 1206.154 1952 1201.077 L 1952 1196 1947.486 1196 L 1942.972 1196 1943.236 1227.250 M 2068 1238.443 L 2068 1281 2072.500 1281 L 2077 1281 2077 1264.467 L 2077 1247.933 2080.347 1251.280 C 2085.261 1256.194, 2090.496 1258.362, 2098.500 1258.797 C 2116.612 1259.781, 2129.733 1247.722, 2130.770 1229.139 C 2131.814 1210.423, 2120.023 1197.058, 2101.680 1196.163 C 2092.386 1195.710, 2086.647 1197.517, 2080.904 1202.706 L 2077.115 1206.129 2076.807 1201.314 L 2076.500 1196.500 2072.250 1196.193 L 2068 1195.885 2068 1238.443 M 2147.182 1218.750 L 2147.500 1241.500 2150.418 1246.767 C 2154.150 1253.503, 2160.173 1257.628, 2167.640 1258.561 C 2178.263 1259.888, 2186.158 1257.664, 2191.986 1251.703 L 2195 1248.620 2195 1253.810 L 2195 1259 2199.500 1259 L 2204 1259 2204 1227.500 L 2204 1196 2199.575 1196 L 2195.150 1196 2194.825 1215.750 C 2194.522 1234.153, 2194.338 1235.828, 2192.129 1240.316 C 2188.552 1247.581, 2183.516 1250.501, 2174.573 1250.496 C 2166.317 1250.492, 2162.114 1248.510, 2158.681 1243 C 2156.644 1239.731, 2156.479 1238.062, 2156.180 1217.750 L 2155.860 1196 2151.362 1196 L 2146.865 1196 2147.182 1218.750 M 2282.500 1197.981 C 2279.200 1199.070, 2275.199 1201.014, 2273.608 1202.300 L 2270.717 1204.638 2272.556 1207.569 C 2273.567 1209.181, 2274.528 1210.685, 2274.691 1210.911 C 2274.854 1211.136, 2275.840 1210.550, 2276.882 1209.607 C 2282.364 1204.645, 2297.239 1202.402, 2304.510 1205.440 C 2309.098 1207.357, 2311.992 1212.272, 2311.996 1218.156 L 2312 1222.812 2297.750 1223.156 C 2285.162 1223.460, 2282.935 1223.778, 2278.652 1225.887 C 2268.281 1230.992, 2265.874 1243.428, 2273.602 1251.981 C 2281.769 1261.021, 2301.020 1261.475, 2309.856 1252.836 L 2313 1249.763 2313 1254.439 L 2313 1259.115 2317.250 1258.807 L 2321.500 1258.500 2321.500 1236 L 2321.500 1213.500 2318.676 1207.749 C 2314.551 1199.349, 2309.614 1196.671, 2297.549 1196.287 C 2290.622 1196.067, 2287.093 1196.464, 2282.500 1197.981 M 2360 1196.889 C 2346.201 1201.358, 2337.936 1212.516, 2337.868 1226.768 C 2337.798 1241.491, 2345.339 1252.681, 2358.332 1257.134 C 2361.192 1258.114, 2363.443 1259.484, 2363.373 1260.202 C 2363.303 1260.916, 2362.915 1263.188, 2362.511 1265.250 C 2361.779 1268.994, 2361.783 1269, 2365.189 1269 C 2369.340 1269, 2371 1270.492, 2371 1274.225 C 2371 1278.100, 2367.223 1279.545, 2361.115 1278.007 C 2357.609 1277.124, 2356.512 1277.164, 2355.858 1278.196 C 2353.499 1281.915, 2356.825 1284, 2365.115 1284 C 2373.628 1284, 2378 1280.536, 2378 1273.788 C 2378 1269.604, 2375.979 1266.648, 2371.989 1264.995 C 2369.718 1264.055, 2368.978 1263.159, 2369.199 1261.618 C 2369.444 1259.908, 2370.478 1259.381, 2374.797 1258.762 C 2377.710 1258.344, 2381.449 1257.302, 2383.107 1256.445 C 2386.510 1254.685, 2394 1248.178, 2394 1246.982 C 2394 1246.550, 2392.558 1245.283, 2390.795 1244.167 L 2387.590 1242.138 2383.926 1245.448 C 2369.799 1258.211, 2347 1247.594, 2347 1228.252 C 2347 1213.337, 2355.518 1204.074, 2369.282 1204.022 C 2376.194 1203.996, 2381.058 1205.845, 2384.772 1209.911 L 2387.512 1212.911 2390.756 1210.858 C 2392.540 1209.728, 2394 1208.467, 2394 1208.055 C 2394 1206.514, 2387.090 1200.268, 2383.366 1198.444 C 2379.157 1196.383, 2364.562 1195.411, 2360 1196.889 M 2419.406 1197.415 C 2414.405 1198.981, 2407 1203.051, 2407 1204.234 C 2407 1204.710, 2407.685 1206.425, 2408.523 1208.045 L 2410.047 1210.991 2415.661 1207.822 C 2423.224 1203.554, 2434.455 1202.661, 2440.672 1205.833 C 2445.384 1208.237, 2448 1212.862, 2448 1218.792 L 2448 1222.782 2433.250 1223.158 C 2419.775 1223.501, 2418.119 1223.748, 2414.089 1226.017 C 2407.283 1229.848, 2405.500 1232.922, 2405.500 1240.823 C 2405.500 1246.217, 2405.948 1248.129, 2407.834 1250.773 C 2411.230 1255.534, 2417.222 1258.233, 2425.613 1258.781 C 2433.917 1259.323, 2438.944 1258, 2444.190 1253.892 L 2447.879 1251.003 2448.190 1254.751 C 2448.491 1258.390, 2448.625 1258.509, 2452.750 1258.807 L 2457 1259.115 2456.994 1236.807 C 2456.991 1224.168, 2456.529 1212.844, 2455.928 1210.679 C 2454.424 1205.265, 2448.829 1199.470, 2443.276 1197.579 C 2437.718 1195.685, 2425.208 1195.599, 2419.406 1197.415 M 2493.379 1197.835 C 2479.152 1202.753, 2470.838 1218.212, 2474.050 1233.777 C 2475.646 1241.507, 2477.994 1245.818, 2483.247 1250.660 C 2495.175 1261.655, 2514.825 1261.655, 2526.753 1250.660 C 2532.099 1245.732, 2534.430 1241.388, 2535.994 1233.434 C 2538.950 1218.409, 2530.844 1203.079, 2517.255 1197.994 C 2510.551 1195.486, 2500.372 1195.418, 2493.379 1197.835 M 1048.459 1205.827 C 1036.610 1211.364, 1032.228 1228.748, 1039.655 1240.759 C 1045.197 1249.724, 1057.863 1253.531, 1067.500 1249.129 C 1083.414 1241.860, 1085.529 1217.644, 1071.132 1207.525 C 1067.521 1204.987, 1065.782 1204.487, 1059.687 1204.236 C 1054.263 1204.011, 1051.509 1204.402, 1048.459 1205.827 M 1398.204 1206.128 C 1388.124 1211.117, 1383.474 1224.229, 1387.545 1236.178 C 1393.457 1253.528, 1417.809 1256.184, 1427.485 1240.534 C 1430.193 1236.153, 1430.498 1234.835, 1430.483 1227.578 C 1430.464 1218.876, 1428.596 1213.740, 1423.834 1209.298 C 1417.866 1203.731, 1406.009 1202.265, 1398.204 1206.128 M 1519.211 1205.129 C 1511.824 1207.259, 1505 1218.002, 1505 1227.500 C 1505 1245.622, 1523.903 1256.694, 1539.368 1247.630 C 1554.312 1238.873, 1553.179 1212.983, 1537.541 1205.880 C 1533.157 1203.888, 1524.712 1203.542, 1519.211 1205.129 M 1622.500 1205.896 C 1614.186 1209.745, 1609.875 1217.181, 1609.875 1227.673 C 1609.875 1244.601, 1624.340 1255.025, 1640.110 1249.461 C 1649.017 1246.319, 1654.124 1238.412, 1654.186 1227.669 C 1654.268 1213.539, 1645.351 1204.044, 1632 1204.044 C 1628.753 1204.044, 1624.861 1204.803, 1622.500 1205.896 M 1701.500 1205.400 C 1695.999 1207.825, 1691.146 1213.892, 1689.621 1220.250 L 1688.962 1223 1710.481 1223 C 1727.041 1223, 1731.995 1222.712, 1731.978 1221.750 C 1731.890 1216.747, 1724.914 1207.740, 1719.282 1205.360 C 1715.221 1203.643, 1705.436 1203.666, 1701.500 1205.400 M 1885.491 1205.865 C 1880.591 1208.091, 1875.631 1213.559, 1873.983 1218.551 C 1873.240 1220.804, 1872.943 1225.205, 1873.231 1229.698 C 1873.841 1239.208, 1877.011 1244.232, 1884.936 1248.250 C 1902.708 1257.262, 1920.795 1242.572, 1917.027 1222.186 C 1915.651 1214.745, 1911.970 1209.662, 1905.691 1206.533 C 1899.478 1203.437, 1891.422 1203.171, 1885.491 1205.865 M 2089.459 1205.827 C 2077.610 1211.364, 2073.228 1228.748, 2080.655 1240.759 C 2087.957 1252.571, 2105.446 1254.414, 2115.343 1244.414 C 2120.304 1239.401, 2121.471 1236.189, 2121.486 1227.500 C 2121.498 1220.521, 2121.142 1218.891, 2118.695 1214.728 C 2114.507 1207.603, 2109.310 1204.590, 2100.590 1204.231 C 2095.266 1204.011, 2092.493 1204.409, 2089.459 1205.827 M 2495.500 1205.896 C 2487.267 1209.708, 2482.755 1217.400, 2482.813 1227.523 C 2482.858 1235.336, 2485.262 1241.212, 2490.110 1245.362 C 2496.596 1250.914, 2504.832 1252.382, 2513.110 1249.461 C 2522.279 1246.226, 2526.956 1238.807, 2526.956 1227.500 C 2526.956 1216.586, 2522.526 1209.205, 2513.782 1205.553 C 2508.774 1203.461, 2500.421 1203.618, 2495.500 1205.896 M 1148.378 1231.437 C 1140.326 1234.942, 1139.747 1245.008, 1147.335 1249.574 C 1151.614 1252.148, 1162.048 1252.150, 1167.311 1249.577 C 1172.900 1246.845, 1176 1241.739, 1176 1235.268 L 1176 1230 1163.750 1230.039 C 1155.706 1230.065, 1150.428 1230.545, 1148.378 1231.437 M 2284.378 1231.437 C 2273.696 1236.086, 2277.187 1249.706, 2289.535 1251.558 C 2298.165 1252.852, 2307.349 1249.093, 2310.515 1242.971 C 2311.332 1241.391, 2312 1237.827, 2312 1235.050 L 2312 1230 2299.750 1230.039 C 2291.706 1230.065, 2286.428 1230.545, 2284.378 1231.437 M 2421.001 1231.123 C 2416.165 1233.051, 2414 1236.020, 2414 1240.720 C 2414 1243.993, 2414.599 1245.690, 2416.385 1247.476 C 2421.358 1252.449, 2432.414 1253.143, 2439.873 1248.951 C 2445.355 1245.870, 2448 1241.391, 2448 1235.188 L 2448 1230 2435.750 1230.063 C 2429.012 1230.098, 2422.375 1230.575, 2421.001 1231.123" stroke="none" fill="#0452c2" fill-rule="evenodd"/></svg>